<svg xmlns="http://www.w3.org/2000/svg" width="28" height="28" viewBox="0 0 28 28"><defs><linearGradient id="a" x1="72%" x2="50%" y1="0%" y2="100%"><stop offset="0%" stop-color="#999"/><stop offset="100%" stop-color="#444"/></linearGradient></defs><path fill="none" stroke="url(#a)" stroke-linecap="round" stroke-linejoin="round" stroke-width="3" d="M26,14 C26,11.4658403 25.19768,8.9967443 23.708192,6.9465683 C22.218656,4.8964163 20.11832,3.3704243 17.708192,2.5873211 C15.298088,1.8042251 12.701912,1.8042275 10.291784,2.5873211 C7.88168,3.3704243 5.781344,4.8964163 4.291784,6.9465683 C2.802248,8.9967443 2,11.4658403 2,14 C2,16.5341603 2.802248,19.0032563 4.291808,21.0534323 C5.781344,23.1035843 7.88168,24.6296003 10.291808,25.4127203 C12.701912,26.1958403 15.298088,26.1958403 17.708216,25.4127203 L17.559872,24.9562403 C15.246152,25.7079203 12.753848,25.7079203 10.440128,24.9562403 C8.126408,24.2043923 6.110072,22.7394563 4.680128,20.7712883 C3.25016,18.8031203 2.48,16.4327843 2.48,14 C2.48,11.5672163 3.25016,9.1968803 4.680128,7.2287123 C6.110072,5.2605443 8.126408,3.7956083 10.440128,3.0438323 C12.753848,2.2920563 15.246152,2.2920563 17.559872,3.0438323 C19.873592,3.7956083 21.889928,5.2605443 23.319872,7.2287123 C24.74984,9.1968803 25.52,11.5672163 25.52,14 L26,14 Z" opacity=".5"/></svg>